<svg width="142" height="32" viewBox="0 0 142 32" fill="none" xmlns="http://www.w3.org/2000/svg">
<path d="M10.1687 6H24L13.8313 19H0L10.1687 6Z" fill="#155EEF"/>
<path d="M10.9935 19.9648L7 25H21.6894L32 12H21.1583L14.8412 19.9648H10.9935Z" fill="#312ECB"/>
<path d="M111.854 22.3162L107.005 9.84229H110.766L113.451 17.6144H113.633L116.193 9.84229H120L114.8 23.857C114.362 25.0504 113.754 25.9417 112.976 26.5308C112.205 27.1275 111.212 27.4259 109.996 27.4259H108.376V24.2423H109.792C110.653 24.2423 111.269 23.7966 111.639 22.9054L111.854 22.3162Z" fill="#101828"/>
<path d="M95.4418 15.9607C95.4191 14.7748 95.676 13.6947 96.2122 12.7204C96.7485 11.7385 97.5151 10.9605 98.5121 10.3865C99.5167 9.81246 100.65 9.52922 101.911 9.53677C103.603 9.53677 105.012 10.0088 106.137 10.953C107.293 11.9047 107.95 13.1169 108.108 14.5898H104.46C104.279 14.0384 103.965 13.6003 103.52 13.2755C103.074 12.9508 102.545 12.7884 101.934 12.7884C101.073 12.7884 100.382 13.0867 99.8604 13.6834C99.3392 14.2726 99.0786 15.0316 99.0786 15.9607C99.0786 16.8897 99.343 17.6526 99.8717 18.2493C100.4 18.846 101.095 19.1443 101.956 19.1443C102.545 19.1443 103.063 18.9895 103.509 18.6798C103.962 18.3701 104.264 17.966 104.415 17.4675H108.086C107.882 18.9479 107.225 20.1413 106.114 21.0477C105.012 21.9465 103.618 22.3959 101.934 22.3959C100.99 22.4035 100.106 22.2411 99.2826 21.9087C98.4593 21.5688 97.7644 21.1081 97.1979 20.5265C96.639 19.9374 96.2009 19.25 95.8837 18.4645C95.574 17.6714 95.4267 16.8368 95.4418 15.9607Z" fill="#101828"/>
<path d="M86.9837 22.0899H83.3809V9.84252H86.7684V11.1794H86.961C87.2405 10.696 87.671 10.3033 88.2526 10.0011C88.8342 9.69146 89.4989 9.53662 90.2466 9.53662C91.5684 9.53662 92.6296 9.94826 93.4302 10.7716C94.2309 11.5722 94.6312 12.6221 94.6312 13.9212V22.0899H91.0397V15.0315C91.0397 14.3819 90.8584 13.8608 90.4959 13.468C90.1409 13.0752 89.665 12.8789 89.0683 12.8789C88.4565 12.8789 87.9543 13.1017 87.5615 13.5473C87.1763 13.9929 86.9837 14.5519 86.9837 15.2241V22.0899Z" fill="#101828"/>
<path d="M69.0986 16.0285C69.0986 14.0874 69.6085 12.5276 70.6281 11.3494C71.678 10.1409 73.0225 9.53662 74.6615 9.53662C75.4546 9.53662 76.1494 9.70279 76.7461 10.0351C77.3504 10.3599 77.8073 10.7602 78.117 11.2361H78.3096V9.84252H81.9011V22.0899H78.3323V20.6963H78.1397C78.0264 20.8776 77.8867 21.0513 77.7205 21.2175C77.5619 21.3836 77.3466 21.5649 77.0747 21.7613C76.8028 21.9501 76.4667 22.1012 76.0664 22.2145C75.666 22.3353 75.228 22.3958 74.7521 22.3958C73.0678 22.3958 71.7007 21.8142 70.6508 20.651C69.616 19.5029 69.0986 17.9621 69.0986 16.0285ZM72.7354 15.9605C72.7354 16.9047 72.996 17.6713 73.5172 18.2604C74.0384 18.8496 74.7219 19.1442 75.5679 19.1442C76.4062 19.1442 77.0822 18.8458 77.5959 18.2491C78.117 17.6524 78.3776 16.8896 78.3776 15.9605C78.3776 15.0013 78.1132 14.2346 77.5845 13.6606C77.0634 13.079 76.3836 12.7882 75.5452 12.7882C74.7144 12.7882 74.0384 13.0828 73.5172 13.6719C72.996 14.2611 72.7354 15.0239 72.7354 15.9605Z" fill="#101828"/>
<path d="M60.6399 22.0899H57.0371V9.84252H60.4247V11.1794H60.6173C60.8967 10.696 61.3273 10.3033 61.9089 10.0011C62.4904 9.69146 63.1551 9.53662 63.9029 9.53662C65.2247 9.53662 66.2859 9.94826 67.0865 10.7716C67.8871 11.5722 68.2874 12.6221 68.2874 13.9212V22.0899H64.6959V15.0315C64.6959 14.3819 64.5147 13.8608 64.1521 13.468C63.7971 13.0752 63.3213 12.8789 62.7246 12.8789C62.1128 12.8789 61.6105 13.1017 61.2177 13.5473C60.8325 13.9929 60.6399 14.5519 60.6399 15.2241V22.0899Z" fill="#101828"/>
<path d="M52.2259 7.93912C51.8331 7.59168 51.6367 7.11961 51.6367 6.52292C51.6367 5.92622 51.8331 5.45415 52.2259 5.10671C52.6262 4.75172 53.136 4.57422 53.7554 4.57422C54.3747 4.57422 54.8845 4.75172 55.2849 5.10671C55.6701 5.4466 55.8627 5.92622 55.8627 6.54558C55.8627 7.14982 55.6701 7.62189 55.2849 7.96178C54.8997 8.30167 54.3898 8.47161 53.7554 8.47161C53.136 8.47161 52.6262 8.29412 52.2259 7.93912ZM55.5681 22.0898H51.9653V9.8425H55.5681V22.0898Z" fill="#101828"/>
<path d="M43.994 12.6409H42V9.84248H44.096V9.04941C44.096 7.70496 44.519 6.64375 45.3649 5.86578C46.2184 5.08026 47.3551 4.6875 48.7751 4.6875H50.5425V7.65586H49.1943C48.658 7.65586 48.2502 7.7956 47.9707 8.07506C47.6913 8.34697 47.5515 8.72463 47.5515 9.20802V9.84248H50.6332V12.6409H47.5968V22.0898H43.994V12.6409Z" fill="#101828"/>
</svg>
